HIERARCHY
ROOT Hips
{
	OFFSET 0.000000 89.005402 0.000000
	CHANNELS 6 Xposition Yposition Zposition Xrotation Yrotation Zrotation
	JOINT Spine
	{
		OFFSET 0.116900 10.681000 0.373400
		CHANNELS 3 Xrotation Yrotation Zrotation
		JOINT Spine1
		{
			OFFSET 0.000000 13.840401 0.053500
			CHANNELS 3 Xrotation Yrotation Zrotation
			JOINT Spine2
			{
				OFFSET 0.000000 14.712700 -0.366200
				CHANNELS 3 Xrotation Yrotation Zrotation
				JOINT Neck
				{
					OFFSET 0.000000 35.415497 -3.314200
					CHANNELS 3 Xrotation Yrotation Zrotation
					JOINT Head
					{
						OFFSET 0.000000 16.899200 1.218300
						CHANNELS 3 Xrotation Yrotation Zrotation
						JOINT HeadTop_End
						{
							OFFSET 0.000000 22.206207 2.192500
							CHANNELS 3 Xrotation Yrotation Zrotation
							End Site
							{
								OFFSET 0.000000 22.314178 0.000000
							}
						}
					}
				}
				JOINT LeftShoulder
				{
					OFFSET 12.896400 26.716293 -4.548400
					CHANNELS 3 Xrotation Yrotation Zrotation
					JOINT LeftArm
					{
						OFFSET 19.027000 -4.857010 -1.718400
						CHANNELS 3 Xrotation Yrotation Zrotation
						JOINT LeftForeArm
						{
							OFFSET 24.179897 0.000000 0.000000
							CHANNELS 3 Xrotation Yrotation Zrotation
							JOINT LeftHand
							{
								OFFSET 27.156403 0.000000 0.000000
								CHANNELS 3 Xrotation Yrotation Zrotation
								JOINT LeftHandIndex1
								{
									OFFSET 16.441200 0.000000 0.000000
									CHANNELS 3 Xrotation Yrotation Zrotation
									JOINT LeftHandIndex2
									{
										OFFSET 4.821899 0.000000 0.000000
										CHANNELS 3 Xrotation Yrotation Zrotation
										JOINT LeftHandIndex3
										{
											OFFSET 6.386497 0.000000 0.000000
											CHANNELS 3 Xrotation Yrotation Zrotation
											JOINT LeftHandIndex4
											{
												OFFSET 5.188988 0.000000 0.000000
												CHANNELS 3 Xrotation Yrotation Zrotation
												End Site
												{
													OFFSET -0.178703 5.185913 0.000177
												}
											}
										}
									}
								}
								JOINT LeftHandThumb1
								{
									OFFSET 6.534897 -5.032593 5.900300
									CHANNELS 3 Xrotation Yrotation Zrotation
									JOINT LeftHandThumb2
									{
										OFFSET 3.818176 -2.204422 2.204423
										CHANNELS 3 Xrotation Yrotation Zrotation
										JOINT LeftHandThumb3
										{
											OFFSET 3.252098 -1.877594 1.877601
											CHANNELS 3 Xrotation Yrotation Zrotation
											JOINT LeftHandThumb4
											{
												OFFSET 5.251778 -3.032120 3.032117
												CHANNELS 3 Xrotation Yrotation Zrotation
												End Site
												{
													OFFSET 0.000023 6.780014 0.000000
												}
											}
										}
									}
								}
							}
						}
					}
				}
				JOINT RightShoulder
				{
					OFFSET -12.896300 26.716293 -4.548400
					CHANNELS 3 Xrotation Yrotation Zrotation
					JOINT RightArm
					{
						OFFSET -19.027000 -4.857010 -1.718400
						CHANNELS 3 Xrotation Yrotation Zrotation
						JOINT RightForeArm
						{
							OFFSET -24.179897 0.000000 0.000000
							CHANNELS 3 Xrotation Yrotation Zrotation
							JOINT RightHand
							{
								OFFSET -27.156403 0.000000 0.000000
								CHANNELS 3 Xrotation Yrotation Zrotation
								JOINT RightHandThumb1
								{
									OFFSET -6.591202 -4.852203 5.988100
									CHANNELS 3 Xrotation Yrotation Zrotation
									JOINT RightHandThumb2
									{
										OFFSET -3.818176 -2.204422 2.204423
										CHANNELS 3 Xrotation Yrotation Zrotation
										JOINT RightHandThumb3
										{
											OFFSET -3.252098 -1.877594 1.877601
											CHANNELS 3 Xrotation Yrotation Zrotation
											JOINT RightHandThumb4
											{
												OFFSET -5.251778 -3.032120 3.032117
												CHANNELS 3 Xrotation Yrotation Zrotation
												End Site
												{
													OFFSET -0.000023 6.780014 0.000000
												}
											}
										}
									}
								}
								JOINT RightHandIndex1
								{
									OFFSET -16.029404 0.000000 0.000000
									CHANNELS 3 Xrotation Yrotation Zrotation
									JOINT RightHandIndex2
									{
										OFFSET -5.213303 0.000000 0.000000
										CHANNELS 3 Xrotation Yrotation Zrotation
										JOINT RightHandIndex3
										{
											OFFSET -6.386528 0.000000 0.000000
											CHANNELS 3 Xrotation Yrotation Zrotation
											JOINT RightHandIndex4
											{
												OFFSET -5.189026 0.000000 0.000000
												CHANNELS 3 Xrotation Yrotation Zrotation
												End Site
												{
													OFFSET 0.236702 5.183624 0.001972
												}
											}
										}
									}
								}
							}
						}
					}
				}
			}
		}
	}
	JOINT LeftUpLeg
	{
		OFFSET 14.073000 -7.904099 -1.463000
		CHANNELS 3 Xrotation Yrotation Zrotation
		JOINT LeftLeg
		{
			OFFSET -0.109806 -34.073280 4.093200
			CHANNELS 3 Xrotation Yrotation Zrotation
			JOINT LeftFoot
			{
				OFFSET 0.109806 -29.899420 -6.319000
				CHANNELS 3 Xrotation Yrotation Zrotation
				JOINT LeftToeBase
				{
					OFFSET 1.551100 -14.988700 20.535801
					CHANNELS 3 Xrotation Yrotation Zrotation
					JOINT LeftToe_End
					{
						OFFSET 0.221200 0.570800 13.248301
						CHANNELS 3 Xrotation Yrotation Zrotation
						End Site
						{
							OFFSET 0.000000 13.262435 0.000000
						}
					}
				}
			}
		}
	}
	JOINT RightUpLeg
	{
		OFFSET -13.839300 -7.904099 -1.463000
		CHANNELS 3 Xrotation Yrotation Zrotation
		JOINT RightLeg
		{
			OFFSET 0.109694 -34.073219 4.093300
			CHANNELS 3 Xrotation Yrotation Zrotation
			JOINT RightFoot
			{
				OFFSET -0.109694 -29.899384 -6.319200
				CHANNELS 3 Xrotation Yrotation Zrotation
				JOINT RightToeBase
				{
					OFFSET -1.551100 -14.988700 20.535801
					CHANNELS 3 Xrotation Yrotation Zrotation
					JOINT RightToe_End
					{
						OFFSET -0.221200 0.570900 13.248299
						CHANNELS 3 Xrotation Yrotation Zrotation
						End Site
						{
							OFFSET 0.000000 13.262440 0.000000
						}
					}
				}
			}
		}
	}
}
MOTION
Frames: 9
Frame Time: 0.033333
-0.334930 82.213486 0.276111 5.048667 -15.634364 0.293599 23.101230 4.310391 -0.418249 3.699061 1.240286 -0.840911 3.692192 1.313812 -0.845958 -12.698317 1.122659 2.284732 -14.088193 7.830453 -3.299428 0.000000 0.000000 -0.000000 7.812708 -20.949852 9.748535 -33.643552 -3.123747 -85.447155 0.000022 -42.998261 -4.823133 -17.287110 -10.866552 -12.598999 -4.709712 11.357986 -75.214692 -0.816401 3.073994 -46.874639 -4.740625 0.379139 -78.699455 -0.000000 -0.000000 -0.000001 -7.471922 1.860682 -7.166913 30.986997 27.310532 -4.510882 83.254658 13.297861 -10.940244 -0.000001 0.000000 -0.000001 13.916973 27.241164 -23.493061 -43.128803 -5.410738 84.810978 0.000048 58.104474 5.767190 -18.206790 16.096567 8.636265 9.347175 2.810559 -11.364524 16.169032 -43.266014 15.843566 32.491825 -44.566756 5.661144 -0.000002 -0.000001 -0.000001 17.076784 -0.396534 31.924342 -0.204401 -0.284219 112.811564 1.553157 -1.173037 33.344563 0.000001 -0.000001 -0.000000 -34.286911 2.596344 10.802229 30.946764 4.138301 1.331481 -0.745231 0.739948 -7.366762 -0.359397 -1.379839 -0.238582 -0.000000 0.000000 -0.000000 -11.444311 -10.928553 -13.408139 29.558921 -5.714734 1.618942 -20.126691 -3.299059 12.829322 -1.226086 1.216299 -0.216682 0.000000 0.000000 -0.000000 
-0.020830 81.691818 0.557588 4.708129 -20.109207 -2.874724 20.375846 3.584394 0.766710 3.441225 0.676730 -0.150560 3.436424 0.739763 -0.148156 -10.784707 2.694757 4.512080 -10.165381 15.206468 -5.616576 0.000001 -0.000000 0.000000 7.677444 -28.268283 9.088367 -30.799000 2.095525 -79.786206 0.000010 -43.034519 -7.151646 -28.353034 -15.216108 -6.823311 -4.705829 11.361017 -75.266957 -0.816403 3.073996 -46.874639 -4.740627 0.379142 -78.699455 0.000001 -0.000000 0.000001 -7.471919 1.860681 -7.166914 30.986990 27.310535 -4.510879 83.254658 13.297860 -10.940244 -0.000001 -0.000000 -0.000001 22.678870 40.550601 -32.726496 -44.105113 -16.538596 78.593751 0.000038 57.556788 4.587618 -14.633974 12.830107 10.681116 9.347176 2.810560 -11.364525 16.169030 -43.266011 15.843566 32.491825 -44.566756 5.661145 -0.000001 -0.000000 0.000001 17.076784 -0.396536 31.924342 -0.204401 -0.284217 112.811557 1.553156 -1.173039 33.344563 -0.000001 0.000000 0.000004 -39.788403 7.084061 15.730655 41.259100 0.502365 2.917942 -5.684556 0.511929 -1.925482 -4.417422 -1.332784 -4.123782 0.000000 0.000000 0.000000 -11.642520 -10.548908 -9.472341 28.650656 -2.814168 0.219887 -18.960872 -3.014652 12.308273 -1.226097 1.216300 -0.216676 -0.000000 -0.000003 -0.000000 
0.251832 80.410080 1.453988 5.804462 -24.518648 -5.527667 16.798980 2.528015 2.795743 3.104327 -0.074760 1.039388 3.098151 -0.025745 1.051945 -9.584212 4.110204 5.541720 -6.364586 22.046995 -8.502792 -0.000001 0.000000 -0.000000 6.291496 -33.596410 6.117349 -28.812453 2.790722 -71.794926 0.000006 -46.510983 -9.287844 -39.629618 -18.496197 1.064683 -4.706719 11.364563 -75.391287 -0.816400 3.073995 -46.874642 -4.740629 0.379135 -78.699455 0.000002 -0.000001 0.000001 -7.471921 1.860684 -7.166909 30.986994 27.310532 -4.510875 83.254658 13.297860 -10.940245 -0.000002 -0.000001 -0.000001 27.377169 41.615789 -37.711202 -51.222065 -10.739176 74.576343 0.000068 50.268369 1.959321 -15.119949 13.093616 11.324002 9.347177 2.810562 -11.364527 16.169032 -43.266014 15.843566 32.491825 -44.566756 5.661145 0.000002 0.000000 -0.000000 17.076783 -0.396533 31.924349 -0.204400 -0.284219 112.811564 1.553155 -1.173038 33.344567 0.000001 -0.000001 -0.000000 -48.185386 6.766124 20.625290 53.934862 1.166809 3.726520 -8.544544 -0.041992 3.366842 -11.570031 -1.053966 -7.072220 0.000000 -0.000000 -0.000000 -13.888450 -10.174620 -6.318987 30.190491 0.459212 -0.471776 -19.409485 -2.940094 11.853488 -1.226108 1.216300 -0.216675 -0.000000 0.000000 -0.000000 
0.273516 79.086945 2.530752 6.879508 -28.466299 -6.391635 14.271632 1.109221 3.741505 2.953920 -0.949212 2.182860 2.943096 -0.910799 2.203283 -9.428955 5.059133 6.865123 -3.074755 28.223882 -12.180019 -0.000000 0.000000 0.000000 3.825816 -38.981720 2.797847 -27.050910 0.123564 -63.078805 0.000017 -49.690473 -8.560244 -48.943978 -22.056020 8.408975 -4.707809 11.368881 -75.539693 -0.816402 3.073994 -46.874642 -4.740627 0.379143 -78.699455 0.000002 -0.000001 0.000002 -7.471920 1.860682 -7.166915 30.986990 27.310532 -4.510882 83.254658 13.297864 -10.940243 0.000000 -0.000001 0.000000 25.173871 37.195311 -35.224812 -59.002364 2.767678 73.287786 -0.000019 39.550566 -0.377766 -17.517070 17.091964 11.590916 9.347177 2.810561 -11.364524 16.169035 -43.266011 15.843565 32.491821 -44.566762 5.661142 0.000002 0.000002 0.000001 17.076783 -0.396534 31.924342 -0.204399 -0.284220 112.811557 1.553155 -1.173039 33.344567 0.000000 -0.000001 -0.000001 -53.131908 4.836182 23.012921 61.989841 3.662286 4.429314 -9.811276 -0.444966 4.959387 -13.956243 -0.747790 -9.902664 0.000000 0.000000 0.000000 -16.633000 -8.740923 -4.890223 33.296568 2.629125 -1.208040 -20.955637 -3.092962 11.937619 -1.226093 1.216297 -0.216674 -0.000000 -0.000001 0.000000 
0.161060 78.291107 3.709969 7.250617 -31.292153 -6.870540 13.499953 -0.087732 4.851244 2.737593 -1.585360 3.254343 2.728879 -1.544333 3.282238 -9.480811 5.486836 8.399108 -0.608014 33.018292 -16.548927 0.000000 0.000000 -0.000000 -0.563670 -46.247245 -0.716041 -24.185956 -6.207957 -54.237620 0.000033 -48.559599 -5.438415 -57.239676 -26.657807 12.699003 -4.708709 11.372577 -75.664016 -0.816400 3.073995 -46.874642 -4.740629 0.379139 -78.699461 0.000002 0.000001 -0.000001 -7.471920 1.860686 -7.166916 30.986990 27.310532 -4.510881 83.254651 13.297863 -10.940248 0.000002 -0.000000 0.000000 20.590847 31.345063 -28.774754 -64.082365 15.363706 71.131666 0.000010 31.996851 -0.067596 -19.637296 22.249503 10.498825 9.347175 2.810559 -11.364523 16.169033 -43.266011 15.843568 32.491821 -44.566756 5.661139 -0.000001 -0.000001 -0.000001 17.076779 -0.396533 31.924342 -0.204400 -0.284216 112.811564 1.553157 -1.173039 33.344567 -0.000000 -0.000000 0.000001 -54.400831 1.442910 23.746387 63.025571 2.619582 5.226250 -8.816517 -0.089445 1.857077 -4.400227 -1.928585 -3.943297 0.000000 0.000000 0.000000 -17.432970 -6.490132 -3.510893 34.749595 2.751749 -2.504065 -22.013766 -3.467611 13.019888 -1.226096 1.216274 -0.216675 -0.000000 -0.000000 -0.000000 
-0.181603 77.768822 5.374287 9.265609 -33.929105 -6.484185 11.918241 -0.147788 6.889575 2.145121 -1.673016 4.254197 2.130759 -1.640039 4.283036 -10.035613 5.315765 9.551607 2.145444 35.748431 -20.503395 -0.000000 -0.000000 -0.000000 -2.908390 -52.458254 0.887575 -25.264559 -13.798442 -50.390441 0.000026 -40.243806 -1.827856 -64.840297 -30.217915 9.259775 -4.709776 11.374224 -75.716062 -0.816402 3.073995 -46.874639 -4.740628 0.379144 -78.699455 0.000001 0.000002 -0.000000 -7.471919 1.860685 -7.166916 30.986987 27.310534 -4.510879 83.254651 13.297858 -10.940246 -0.000000 0.000002 0.000002 18.365839 29.022208 -24.023602 -63.541380 19.914028 63.506655 -0.000005 34.227973 1.707385 -19.025521 23.298434 6.963110 9.347175 2.810560 -11.364521 16.169030 -43.266007 15.843568 32.491821 -44.566762 5.661140 -0.000001 -0.000001 0.000001 17.076783 -0.396533 31.924345 -0.204400 -0.284219 112.811557 1.553152 -1.173041 33.344567 0.000001 0.000000 0.000000 -56.200497 -2.203932 24.036887 59.336094 -1.565203 6.638634 -6.681415 0.105399 -0.885883 -2.401469 -2.414022 -3.403124 0.000000 -0.000002 0.000000 -18.306724 -3.094702 -1.246166 34.351617 0.947823 -4.832083 -22.404129 -4.178784 15.369186 -1.226094 1.216300 -0.216678 -0.000000 -0.000000 0.000000 
-0.908596 77.805634 8.373039 11.383560 -37.220214 -4.548875 9.521411 0.409370 8.397130 1.373456 -1.317021 4.747071 1.331515 -1.312490 4.767150 -10.270606 5.076465 10.600008 5.597301 36.440333 -23.802385 0.000000 0.000000 0.000000 -0.125548 -55.976341 8.328154 -26.909340 -15.404715 -49.477146 0.000009 -39.121111 0.931164 -68.347394 -30.095446 5.286204 -4.712188 11.373281 -75.716547 -0.816403 3.073993 -46.874642 -4.740628 0.379139 -78.699461 -0.000001 0.000000 -0.000000 -7.471919 1.860684 -7.166918 30.986990 27.310537 -4.510880 83.254651 13.297863 -10.940246 -0.000000 0.000001 -0.000001 18.921815 27.665331 -25.417938 -67.201562 16.285679 60.884436 0.000028 35.376384 3.183841 -15.203989 24.461793 3.393620 9.347176 2.810560 -11.364521 16.169027 -43.266014 15.843565 32.491825 -44.566759 5.661136 0.000001 0.000000 0.000005 17.076783 -0.396533 31.924349 -0.204398 -0.284218 112.811564 1.553159 -1.173034 33.344567 0.000000 0.000001 -0.000002 -56.467718 -5.856374 23.584611 51.865571 -7.085423 7.913884 -7.336614 0.956178 -5.734419 -0.513121 -2.899816 2.831487 0.000001 0.000005 -0.000000 -17.143807 1.379019 -0.436927 31.316926 -0.851616 -7.786000 -22.304597 -5.055612 18.557349 -1.226108 1.216289 -0.216671 0.000000 0.000001 -0.000000 
-1.816362 78.931511 12.717099 8.036267 -42.020123 -4.377717 9.339368 1.128807 9.421188 1.098668 -0.917469 4.816184 1.072265 -0.903278 4.832093 -9.104082 5.568478 9.991395 9.477783 36.762049 -26.692202 -0.000000 0.000000 -0.000000 1.704780 -57.690913 11.929423 -26.305411 -11.964951 -48.629222 0.000046 -39.985208 2.847750 -68.784649 -30.008057 0.557732 -4.714286 11.372393 -75.717544 -0.816401 3.073995 -46.874642 -4.740627 0.379138 -78.699455 0.000001 -0.000000 -0.000000 -7.471919 1.860686 -7.166918 30.986990 27.310532 -4.510878 83.254651 13.297862 -10.940241 0.000000 0.000001 0.000000 20.435240 27.762731 -28.921183 -71.674858 14.812694 62.410471 0.000029 31.284780 3.764705 -13.031127 28.302516 -0.492601 9.347176 2.810562 -11.364526 16.169037 -43.266011 15.843570 32.491825 -44.566762 5.661138 0.000000 -0.000000 0.000000 17.076783 -0.396533 31.924342 -0.204401 -0.284217 112.811564 1.553154 -1.173045 33.344570 0.000003 0.000001 -0.000000 -50.220499 -4.333505 21.498994 44.627503 -12.672286 7.564201 -7.487432 1.540227 -9.072638 -1.200065 -2.466020 2.473579 -0.000001 0.000001 -0.000000 -9.185376 3.165098 -4.531215 24.447853 3.016759 -7.412239 -21.108927 -4.712332 19.240607 -1.226098 1.216295 -0.216684 -0.000000 -0.000000 -0.000000 
-2.374066 80.738968 17.816500 1.302913 -49.894846 -6.800548 10.198025 2.171294 10.682685 1.372300 -0.144488 4.843849 1.368613 -0.108661 4.850817 -6.758672 8.067870 7.593290 13.881632 37.831991 -29.662023 0.000000 0.000000 0.000000 -0.094479 -56.690140 8.750933 -22.579137 -7.204612 -49.195623 0.000017 -42.809379 2.572424 -65.859662 -31.845788 -2.012543 -4.716795 11.371655 -75.718664 -0.816399 3.073996 -46.874639 -4.740627 0.379140 -78.699461 0.000000 -0.000000 -0.000001 -7.471918 1.860684 -7.166917 30.986990 27.310532 -4.510879 83.254651 13.297863 -10.940244 -0.000000 0.000000 0.000000 21.784525 29.732749 -32.591668 -71.055776 14.486136 65.705293 0.000016 28.421466 4.290292 -13.174638 33.038445 -4.922480 9.347174 2.810561 -11.364530 16.169035 -43.266011 15.843570 32.491818 -44.566759 5.661139 0.000001 0.000000 -0.000001 17.076781 -0.396533 31.924345 -0.204403 -0.284217 112.811564 1.553154 -1.173041 33.344560 0.000002 -0.000000 0.000002 -40.055439 1.172720 18.543988 39.177859 -15.128256 5.475536 -6.155217 1.448793 -9.935854 -2.315857 -1.534024 1.226467 -0.000000 -0.000000 -0.000000 -6.122830 -3.520006 -8.725375 28.171638 7.020423 -4.885533 -24.289413 -0.378450 2.587953 0.737507 -1.066425 0.646244 -0.000000 0.000003 -0.000000 
